<?xml version="1.0" encoding="UTF-8"?>
<svg id="Layer_2" xmlns="http://www.w3.org/2000/svg" version="1.1" xmlns:xlink="http://www.w3.org/1999/xlink" viewBox="0 0 1000 1000">
  <!-- Generator: Adobe Illustrator 29.2.1, SVG Export Plug-In . SVG Version: 2.1.0 Build 116)  -->
  <defs>
    <style>
      .st0 {
        fill: #e99940;
      }

      .st1 {
        fill: #e2813d;
      }

      .st2 {
        fill: #ca3742;
      }

      .st3 {
        fill: #2e6676;
      }

      .st4 {
        fill: #e2813b;
      }

      .st5 {
        fill: #9d2e2d;
      }

      .st6 {
        fill: #5b141a;
      }

      .st7 {
        fill: #e8964d;
      }

      .st8 {
        fill: #c53547;
      }

      .st9 {
        fill: #49a7be;
      }

      .st10 {
        fill: #929396;
      }

      .st11 {
        fill: #d73942;
      }

      .st12 {
        fill: #de653c;
      }

      .st13 {
        fill: #357b8b;
      }

      .st14 {
        fill: #d73b4c;
      }

      .st15 {
        fill: #f1b944;
      }

      .st16 {
        fill: none;
      }

      .st17 {
        fill: #eba461;
      }

      .st18 {
        fill: #4394b3;
      }

      .st19 {
        fill: #3a859d;
      }

      .st20 {
        fill: #eeac42;
      }

      .st21 {
        fill: #de6238;
      }

      .st22 {
        fill: #df6658;
      }

      .st23 {
        fill: #dc5247;
      }

      .st24 {
        fill: #459ab0;
      }

      .st25 {
        fill: #6dbfc6;
      }

      .st26 {
        fill: #f2bc46;
      }

      .st27 {
        fill: #3c8398;
      }

      .st28 {
        fill: #e2793b;
      }

      .st29 {
        fill: #db4f4f;
      }

      .st30 {
        fill: #eeb443;
      }

      .st31 {
        fill: #a02e39;
      }

      .st32 {
        fill: #e5873c;
      }

      .st33 {
        fill: #52b8c6;
      }

      .st34 {
        fill: #dc4f41;
      }

      .st35 {
        fill: #53b1be;
      }

      .st36 {
        fill: #4aa4bd;
      }

      .st37 {
        fill: #2c667a;
      }

      .st38 {
        fill: #792321;
      }

      .st39 {
        fill: #35788c;
      }

      .st40 {
        fill: #d73940;
      }

      .st41 {
        clip-path: url(#clippath);
      }

      .st42 {
        fill: #f1bf47;
      }

      .st43 {
        fill: #215472;
      }
    </style>
    <clipPath id="clippath">
      <path class="st16" d="M509.8,393c-5.5-3.2-7.7-7.4-11.1-12.8,1.7-1.4,3.5-2.8,5.2-4.3,4.4-3.5,8-9.1,10.9-14.1,11.2-18.8,17.4-44.5,35.8-56,2.6-1.6,5.3-1.8,8.5-3.2,2.7,0,4.5.6,6.5,1.1.3,1.9-1,4.9-1.5,6.8-.8,4.8-1.6,9.6-2.4,14.4-.6,7.8-1.2,15.6-1.7,23.3-2.6,16.1-5.4,30.6-15.6,38.8-5.3,4.2-14.3,8.8-23.3,8.8s-7.7-.8-11.3-2.9M471.7,342c-5.6-27.8,7.6-50.5,23.8-60,3.8-2.2,8.5-3.7,13.3-4.9,1.8-.3,3.6-.5,5.4-.8,9,0,15.6,1.1,21.2,4.4,1.4.9,2.7,1.8,4.1,2.7-1,.4-2.1.7-3.2,1.1-2.8,1.2-5.3,3.2-7.6,5.1-7.6,6.2-13.7,20.6-18.5,30-7.7,15.2-18.8,32.8-34,40.3-2.3-5.2-3.4-11.7-4.6-17.8M619,241.6c-2.7.3-5.4.6-8,.9-4.8,1-9.3,2.5-13.4,4.3-13.1,5.7-21.7,16.6-26.1,31.1-.7,3.6-1.3,7.3-1.9,10.9,0,2.1-.1,4.2-.2,6.3-.6,2.1-2.1,3.9-2.5,6.3-.8-1.4-1.6-2.9-2.4-4.4-2.1-3.3-4.2-6.5-6.3-9.8-8.4-11.8-19.5-23.1-33.5-29.2-4-1.7-8.2-3.1-12.9-4.1-11.2-2.4-22.2,1.4-28.9,5.4-13.2,7.7-21.7,17.4-25.9,34.2-1.1,4.4-1,9.3-1.7,14.2.2,4,.3,8.1.5,12.2,2,12.7,2.8,24.3,6.5,35.2,1.4,3.4,2.8,6.8,4.3,10.3-23.9,3.3-28.4-19-32.9-36.3-1.3-5-1.8-10.7-3.6-14.8-.3-.2-.6-.3-.9-.5-5.5,3.2-12.8,16-16,22.1-2.8,5.5-4.7,11.6-6,18.8-2,10.8.9,22.5,3.5,30.3,6.1,18.9,17.7,30.1,33.5,39.3,5.6,3.3,11.8,5.4,18,8,41.8,18.2,42.4,73.7,34.7,111.6-5.5,27.3-15.3,53.4-23.4,80,0,1.9,1,5.8,1,4.8,3.4-4.9,6.6-10,9.7-15.1,23.5-39.2,39.3-84,33.6-130.3-3.2-26.1-12.3-49.4-34.7-64.6-7.2-4.9-15-9-23-12.5-11.6-5.1-29.9-11.5-37.1-20.4-9.6-11.7-.4-31.7,8.5-38.2h.2c4.1,17.5,16.4,39.1,32.7,44,4.5,1.4,10.3.7,15,.2,1.3,4,4.1,7.5,6.3,10.7,7.2,10.2,15.2,21,25.3,28.3h.2c0-.2.1-.4.2-.6-2.2-3.5-4.4-7-6.6-10.4-6.3-10.1-12.7-20.6-17.1-32.5,2.9-1.7,5.8-3.5,8.7-5.2,1.4,3.7,2.7,7.5,4.1,11.2,3.1,7.1,7.6,13.1,12.2,18.8,11.9,14.8,29.9,14.3,42.8.9,9.6-9.9,13.4-25.1,16.6-41.4.6-5.2,1.2-10.4,1.8-15.7.2-7.8.4-15.6.6-23.3.4-3,.7-6,1.1-9h.3c4.7,12.2,23.2,24.3,40.7,24,1.2-3.7,2.8-7.2,3.6-11.7,3.4-18.8-8-43.8-14.4-54.8-2.1-3.6-7.2-14.9-10.9-15.8-6.3,4.5-12,23.3-5.7,31.4,1.4,1.9,4.6,4.2,8.4,3.6,1.5-.2,4.3-.7,6-.2,5.6,1.8,12.3,17.9,8.2,26.6v.3c-10.3-4-19.3-9.1-24.6-18-5.9-9.9-5.2-22.7-.8-33.6,7.5-18.3,22.2-28.7,46.3-30.4v-.2c-1.8-2.9-6-3.3-10.6-3.3s-1.8,0-2.8,0"/>
    </clipPath>
  </defs>
  <g class="st41">
    <polygon class="st12" points="684.1 173.6 508.2 315 303.6 375 684.1 173.6"/>
    <polygon class="st32" points="684.1 173.6 651.6 272.9 508.2 315 684.1 173.6"/>
    <polygon class="st20" points="391.8 328.4 334.1 251 454.1 295.4 391.8 328.4"/>
    <polygon class="st0" points="391.8 328.4 438.8 335.4 508.2 315 391.8 328.4"/>
    <polygon class="st1" points="508.2 315 454.1 295.4 391.8 328.4 508.2 315"/>
    <polygon class="st0" points="474.9 250.8 684.1 173.6 454.1 295.4 474.9 250.8"/>
    <polygon class="st17" points="366 241.6 474.9 250.8 401 263 366 241.6"/>
    <polygon class="st0" points="454.1 295.4 401 263 474.9 250.8 454.1 295.4"/>
    <polygon class="st30" points="486.3 226.4 522.1 233.4 454.1 295.4 486.3 226.4"/>
    <polygon class="st4" points="438.9 247.8 486.3 226.4 474.9 250.8 438.9 247.8"/>
    <polygon class="st7" points="486.3 226.4 366 241.6 438.9 247.8 486.3 226.4"/>
    <polygon class="st15" points="366 241.6 421 202.8 429.4 233.6 366 241.6"/>
    <polygon class="st26" points="407.7 344.5 391.8 328.4 438.8 335.4 407.7 344.5"/>
    <polygon class="st42" points="366 241.6 334.1 251 454.1 295.4 366 241.6"/>
    <polygon class="st0" points="474.9 250.8 522.1 233.4 486.3 226.4 474.9 250.8"/>
    <polygon class="st11" points="510.9 454.2 291 378.7 438.9 335.3 510.9 454.2"/>
    <polygon class="st8" points="801.4 369 541.2 415.1 510.9 454.2 801.4 369"/>
    <polygon class="st31" points="508.3 314.9 510.9 454.2 438.9 335.3 508.3 314.9"/>
    <polygon class="st2" points="409.1 419.2 438.9 335.3 291 378.7 409.1 419.2"/>
    <polygon class="st28" points="651.6 272.9 510.9 454.2 508.3 314.9 651.6 272.9"/>
    <polygon class="st34" points="801.4 369 564.3 385.3 541.2 415.1 801.4 369"/>
    <polygon class="st22" points="534.8 476.6 510.9 454.2 425.7 508.5 534.8 476.6"/>
    <polygon class="st11" points="801.4 369 607.8 329.3 564.3 385.3 801.4 369"/>
    <polygon class="st40" points="510.9 454.2 534.8 476.6 617.4 422.9 510.9 454.2"/>
    <polygon class="st5" points="680.1 344.1 607.8 329.3 651.6 272.9 680.1 344.1"/>
    <polygon class="st29" points="541.2 415.1 510.3 420.5 510.9 454.2 541.2 415.1"/>
    <polygon class="st14" points="510.3 420.5 541.2 415.1 509.7 390.3 510.3 420.5"/>
    <polygon class="st21" points="564.3 385.3 509.7 390.3 541.2 415.1 564.3 385.3"/>
    <polygon class="st38" points="607.1 455.3 801.4 369 617.4 422.9 607.1 455.3"/>
    <polygon class="st6" points="534.8 476.6 617.4 422.9 607.1 455.3 534.8 476.6"/>
    <polygon class="st23" points="425.7 508.5 409.1 419.2 510.9 454.2 425.7 508.5"/>
    <polygon class="st11" points="409.1 419.2 425.7 508.5 383.8 520.9 409.1 419.2"/>
    <polygon class="st18" points="464.9 542.9 580.4 509 522.4 508.7 464.9 542.9"/>
    <polygon class="st37" points="558 488 522.4 508.7 580.4 509 558 488"/>
    <polygon class="st35" points="616.4 489.2 592.2 471.7 580.4 509 616.4 489.2"/>
    <polygon class="st25" points="488.8 559.3 616.4 489.2 580.6 622.2 488.8 559.3"/>
    <polygon class="st33" points="616.4 489.2 715.3 543 580.6 622.2 616.4 489.2"/>
    <polygon class="st9" points="339.9 699.2 580.6 622.2 770.5 572.9 339.9 699.2"/>
    <polygon class="st24" points="488.8 559.3 339.9 699.2 580.6 622.2 488.8 559.3"/>
    <polygon class="st36" points="600.5 548.4 580.6 622.2 488.8 559.3 600.5 548.4"/>
    <polygon class="st35" points="372 520.4 414.3 508 319.3 568.1 372 520.4"/>
    <polygon class="st27" points="715.3 543 580.6 622.2 770.5 572.9 715.3 543"/>
    <polygon class="st13" points="580.4 509 597.7 454.2 540 471.1 580.4 509"/>
    <polygon class="st25" points="464.9 542.9 319.3 568.1 414.3 508 464.9 542.9"/>
    <polygon class="st3" points="540 471.1 558 488 414.3 508 540 471.1"/>
    <polygon class="st43" points="522.4 508.7 558 488 414.3 508 522.4 508.7"/>
    <polygon class="st39" points="488.8 559.3 464.9 542.9 580.4 509 488.8 559.3"/>
    <polygon class="st19" points="522.4 508.7 414.3 508 464.9 542.9 522.4 508.7"/>
  </g>
  <polygon class="st10" points="361.6 606.4 361.6 604.7 361.6 604.7 361.7 602.6 361.9 600.2 361.9 600.2 362.4 595 355.6 595.5 355.6 595.5 350.9 595.7 350.9 595.7 346 595.9 346 595.9 340.8 596.1 340.9 596.1 335.5 596.3 335.5 596.3 329.8 596.4 329.8 596.4 324 596.4 324 596.4 317.8 596.4 300.9 596.4 337.3 558.5 342.2 553.3 346.6 547.9 350.5 542.4 353.9 536.9 355.4 533.9 356.7 530.9 357.8 527.8 358.7 524.6 359.4 521.3 359.9 517.9 360.2 514.4 360.3 510.8 360.1 506.6 359.5 502.6 358.6 498.9 357.2 495.3 355.5 492 353.4 489 350.9 486.2 348 483.6 344.9 481.3 341.7 479.3 338.3 477.7 334.7 476.3 330.9 475.3 327 474.5 323 474.1 318.8 473.9 315.7 474 312.8 474.3 309.9 474.7 307.1 475.2 304.3 476 301.7 476.8 299.1 478 296.6 479.2 294.3 480.6 292 482.1 289.7 483.9 287.6 485.7 285.6 487.8 283.6 489.9 281.7 492.3 279.2 495.9 290.6 513.5 292.7 506.5 293.6 503.8 294.7 501.4 294.6 501.5 295.8 499.1 295.7 499.3 297 497.1 296.9 497.3 298.3 495.3 299.6 493.8 301.2 492.2 301 492.3 302.6 491 304.3 489.8 304.1 489.9 306 489 307.8 488.2 309.8 487.6 309.6 487.6 311.8 487.1 311.6 487.2 314 486.9 313.8 486.9 316.1 486.8 318.8 486.9 318.6 486.9 321.2 487.3 321 487.2 323.4 487.8 325.5 488.6 327.3 489.5 329 490.7 330.5 492.1 332 493.7 331.9 493.6 333.2 495.5 334.3 497.3 335.3 499.6 336.1 501.8 336.1 501.7 336.7 504.2 337.1 506.7 337.4 509.5 337.4 509.4 337.5 512.4 337.4 515.8 337.1 519.1 336.5 522.5 335.8 525.9 335.9 525.8 334.9 529.3 333.8 532.7 333.8 532.6 332.4 536.1 332.5 536 330.9 539.5 330 541.3 330 541.2 328.9 543.2 329 543.1 327.7 545.1 327.7 545.1 326.3 547.3 326.3 547.3 324.7 549.6 324.7 549.6 323 552 323 551.9 321 554.5 321 554.5 318.9 557.2 318.9 557.1 316.6 560 316.7 559.9 314.2 562.9 314.2 562.9 311.6 566 311.6 565.9 308.8 569.1 305.8 572.4 305.8 572.4 302.7 575.9 302.7 575.9 299.4 579.4 299.4 579.4 295.9 583.1 295.9 583.1 270 610.2 270 616.4 276.1 615.9 279.7 615.7 279.7 615.7 283 615.4 283 615.4 286 615.3 288.7 615.1 288.7 615.1 291.1 615 291.1 615 293.2 614.9 293.2 614.9 295 614.8 295 614.8 301.8 614.7 301.8 614.7 308.9 614.6 324.6 614.6 330.9 614.6 330.8 614.6 336.6 614.7 336.5 614.7 341.8 614.8 341.7 614.8 346.4 615 346.4 615 350.6 615.2 350.6 615.2 354.2 615.5 354.2 615.5 357.3 615.8 362.4 616.6 361.7 609.9 361.6 606.4"/>
  <path class="st10" d="M404.2,592.4l-1.7-3.4-1.5-3.9-1.3-4.5-1-4.9-.8-5.5-.6-6-.3-6.4v-7c-.1,0,0-8.3,0-8.3h0c0,0,.3-7.7.3-7.7h0c0,0,.5-7.1.5-7.1h0c0,0,.7-6.4.7-6.4l.9-6h0c0,.1,1.2-5.3,1.2-5.3h0c0,.1,1.4-4.7,1.4-4.7h0c0,.1,1.5-3.9,1.5-3.9l1.8-3.5,2-3.1,2.1-2.4,2.4-2.1,2.7-1.6,2.8-1.1,3.3-.7,3.5-.2,3.2.2,3.2.7,2.9,1.1,2.4,1.4,2.4,1.9,2.3,2.4,2.1,2.9,1.8,3.4,1.7,3.9,1.4,4.3,1.2,4.9,1,5.3.8,5.9.6,6.4h0c0,0,.3,6.8.3,6.8h0c0,0,.1,7.3.1,7.3v7.9c-.1,0-.1,0-.1,0l-.4,7.3h0c0,0-.6,6.7-.6,6.7h0c0,0-.9,6-.9,6l-1.1,5.5-1.3,4.8-1.6,4.2-1.7,3.5-2,3.1-2.1,2.6-2.3,2.2-2.4,1.8-2.5,1.4-2.7,1-2.9.6-3.1.2-3.1-.2-2.9-.6-2.7-.9-2.5-1.3-2.3-1.7-2.2-2.1-2-2.5-1.9-2.9ZM473.3,528.1l-1.1-7.3-1.4-6.8-1.9-6.3-2.3-5.8-2.7-5.3-3.2-4.8-3.5-4.2-3.8-3.6-4.1-3.1-4.4-2.5-4.7-2-4.9-1.4-5.2-.8-5.4-.3h-3.1c0,0-2.9.3-2.9.3l-2.9.4-2.8.6-2.7.7-2.6.9-2.5,1.1-2.4,1.2-2.4,1.4-2.2,1.6-2.1,1.7-2.1,1.9-1.9,2-1.9,2.2-1.7,2.4-1.7,2.5-2.9,5.3-2.5,5.7-2.1,6.1-1.8,6.5-1.4,6.9-1,7.3-.6,7.7-.2,8.1.2,8.2.6,7.7,1,7.2,1.4,6.7,1.8,6.2,2.3,5.7,2.7,5.2,3.1,4.7,3.5,4.1,3.7,3.5,4,3,4.3,2.5,4.5,1.9,4.8,1.4,5.1.8,5.3.3,6-.3,5.6-.9,5.3-1.5,5-2,4.6-2.6,4.3-3.2,3.9-3.8,3.6-4.3,3.2-4.9,2.7-5.5,2.3-6,1.9-6.5,1.4-7.1,1-7.6.6-8.2.2-8.7-.2-8.3-.6-7.8Z"/>
  <polygon class="st10" points="615.9 566.9 615.3 563.8 614.3 560.8 613.2 557.9 611.8 555.2 610.2 552.6 608.3 550.2 606.1 547.9 603.7 545.9 601 544 598.1 542.4 594.9 541 591.6 539.8 590.2 539.4 590.3 539.4 592.9 537.9 595.4 536.3 597.6 534.6 599.7 532.7 601.6 530.7 603.3 528.6 604.8 526.3 606.1 523.9 607.2 521.4 608.1 518.7 608.8 516 609.3 513.1 609.6 510.1 609.7 507 609.5 503.4 609 500.1 608.2 496.9 607 493.8 605.5 490.9 603.6 488.1 601.4 485.5 598.9 483.1 596.1 481 593.1 479.1 590 477.6 586.7 476.2 583.2 475.2 579.6 474.6 575.8 474.1 571.8 474 566.9 474.2 562.2 474.8 557.5 475.8 553 477.2 548.7 478.9 544.4 481.1 540.3 483.7 535.1 487.6 538.7 495.6 538.6 495.5 542.2 505.6 547.3 498.5 550.1 495.1 550 495.3 552.9 492.4 555.9 490.1 558.7 488.5 561.7 487.2 564.7 486.5 568 486.2 570.3 486.3 570.2 486.3 572.5 486.6 574.6 487 576.5 487.7 576.3 487.6 578 488.4 579.5 489.3 581 490.5 582.2 491.7 583.3 493.2 583.2 493 584.2 494.8 585 496.6 585.8 498.7 585.7 498.6 586.3 500.8 586.7 503.4 586.6 503.3 586.9 506.1 586.9 505.9 587 508.9 586.9 512.3 586.9 512.2 586.6 515.4 586.6 515.3 586.1 518.3 586.1 518.1 585.4 520.9 584.6 523.2 583.6 525.5 583.7 525.2 582.4 527.3 582.5 527.2 581 529 581.1 528.9 579.6 530.4 578.1 531.8 576.3 533 576.5 532.8 574.8 533.8 573 534.5 571.1 535 569.3 535.3 567.2 535.4 562.9 535.2 563 535.2 555.7 534.3 556.5 539.8 556.7 542.9 556.5 545.2 555.6 550.7 561 549.2 563.5 548.8 563.4 548.8 566.2 548.5 566.1 548.5 569.1 548.4 572.1 548.6 572 548.5 574.8 548.9 577.5 549.4 577.3 549.4 579.7 550.1 581.9 551.1 584 552.3 583.8 552.2 585.7 553.6 587.4 555.2 587.3 555 588.8 556.8 590 558.7 591.2 560.9 591.1 560.8 592.1 563 592.8 565.6 592.8 565.4 593.3 568.2 593.3 568.1 593.6 571.1 593.6 570.9 593.7 574 593.6 577.8 593.6 577.7 593.2 581.3 592.5 584.6 592.5 584.4 591.5 587.5 590.4 590.2 589 592.7 587.2 595.1 587.3 594.9 585.4 597 583.2 598.9 580.8 600.5 578.4 601.7 575.8 602.8 573 603.7 570 604.3 566.9 604.7 563.6 604.8 559.7 604.6 555.9 603.9 552.3 602.8 548.8 601.2 545.3 599.2 542 596.7 538.7 593.7 532.1 586.6 531.8 594.8 531.5 598.5 530.8 602.8 530.8 602.7 529.6 609.1 534.9 611.5 538.8 613 542.8 614.4 546.8 615.5 550.8 616.3 554.9 616.9 559 617.3 563.2 617.4 569.1 617.2 574.8 616.6 580.1 615.6 585.2 614.2 589.9 612.3 594.3 610 598.4 607.3 602.1 604.2 605.4 600.8 608.3 597.4 610.8 593.7 612.8 590 614.3 586.1 615.5 582 616.2 577.9 616.4 573.6 616.2 570.2 615.9 566.9"/>
  <path class="st10" d="M706.2,553.7h0c0,0-.4,7.3-.4,7.3h0c0,0-.6,6.7-.6,6.7h0c0,0-.9,6.1-.9,6.1h0c0-.1-1.1,5.4-1.1,5.4l-1.4,4.9v-.2c0,0-1.6,4.4-1.6,4.4v-.2c0,0-1.8,3.8-1.8,3.8v-.2c.1,0-1.9,3.2-1.9,3.2l-2.1,2.6-2.3,2.2-2.4,1.8-2.5,1.4-2.7,1-2.9.6-3.1.2-3.1-.2-2.9-.6-2.7-.9-2.6-1.4-2.2-1.6-2.3-2.2-1.9-2.4-2-3v.2c.1,0-1.7-3.6-1.7-3.6v.2c.1,0-1.4-4.1-1.4-4.1v.2s-1.3-4.5-1.3-4.5l-1-5h0c0,.1-.8-5.5-.8-5.5h0c0,0-.6-6-.6-6h0c0,.1-.3-6.4-.3-6.4h0c0,0-.1-7-.1-7v-8.3c0,0,0,0,0,0l.3-7.7h0c0,0,.5-7.1.5-7.1h0c0,0,.7-6.5.7-6.5h0c0,.1.9-5.9.9-5.9h0c0,0,1.1-5.3,1.1-5.3h0c0,.1,1.4-4.7,1.4-4.7v.2c0,0,1.6-4.2,1.6-4.2v.2c-.1,0,1.8-3.7,1.8-3.7v.2c-.1,0,2-3.2,2-3.2l2.1-2.4,2.4-2,2.7-1.6,2.8-1.1,3.3-.7,3.5-.2,3.2.2,3.2.7,2.8,1.1,2.4,1.4,2.4,1.9,2.3,2.5,2,2.9,1.9,3.5v-.2c0,0,1.6,4,1.6,4v-.2s1.4,4.5,1.4,4.5l1.2,4.9h0c0-.1,1,5.4,1,5.4h0c0-.1.8,5.8.8,5.8h0c0-.1.6,6.3.6,6.3h0c0,0,.3,6.8.3,6.8h0c0,0,.1,7.3.1,7.3v7.9ZM728.9,535.8l-.6-7.8-1.1-7.3-1.4-6.8-1.9-6.3-2.3-5.8-2.8-5.3-3.2-4.8-3.5-4.2-3.8-3.6-4.1-3.1-4.4-2.5-4.7-2-4.9-1.4-5.2-.8-5.5-.3h-3.1c0,0-3,.3-3,.3l-2.9.4-2.8.6-2.7.7-2.7.9-2.5,1.1-2.4,1.2-2.3,1.4-2.3,1.5-2.2,1.7-2,1.9-2,2-1.9,2.2-1.7,2.4-1.6,2.5-3,5.3-2.5,5.7-2.2,6.1-1.8,6.5-1.4,6.9-1,7.3-.5,7.7-.2,8.2.2,8.2.6,7.7,1,7.2,1.4,6.7,1.8,6.2,2.3,5.7,2.7,5.2,3.1,4.7,3.5,4.1,3.7,3.5,4,3,4.3,2.5,4.6,1.9,4.8,1.4,5.1.8,5.3.3,6-.3,5.6-.9,5.3-1.5,5-2,4.6-2.6,4.3-3.2,3.9-3.8,3.5-4.4,3.2-4.9,2.7-5.5,2.3-6,1.8-6.5,1.4-7.1,1-7.6.6-8.2.2-8.7-.2-8.3Z"/>
  <path class="st10" d="M481.5,656.5c-2.6-2-6.5-3-11.8-3s-9.1,1-11.7,3c-2.5,1.9-3.7,4.6-3.7,8.1v10.8c0,1.5.2,2.9.8,4.4h-1.3c0,0-5,0-5,0h0c0-.1-1-.1-1-.1-1.8,0-3.6-.1-5.3-.3.4-1.4.7-2.8.7-4.1v-6.3c0-5.2-2.2-9.2-6.6-11.9-3.8-2.3-8.6-3.5-14.4-3.5h-.8c-5.9,0-10.3.5-13.1,1.6-2.9,1.1-5.5,3-7.6,5.7v-7.1c-1.5,0-3,.2-4.7.6-3.2.7-4.8,2-4.8,3.7v21.6h-6.1c0,.1-81.6.1-81.6.1h0s-2.1,0-2.1,0c-1.5,0-3.1-.2-5.1-.6v-21.1c0-1.8-1.6-3-4.8-3.7-1.7-.4-3.2-.6-4.6-.6v35.6c0,3.9-2.1,6.3-6.4,7.3-1.3.3-2.5.4-3.8.4-2.1,0-3.7-.2-5-.8,1.2,2,3.2,3.6,6.1,4.6,1.6.6,3.2.8,4.9.8s2.3-.1,3.5-.4c2.9-.6,5.3-1.8,7.2-3.6,2-1.9,3-4,3-6.5v-5.9c.6,0,1.2.2,1.5.3,1.6.3,2.8.5,3.8.6h0s128.7,0,128.7,0c3.8,0,6.9-1,9.3-2.9.2-.2.6-.6,1.2-1.2.2.8.4,1.4.4,1.6.8,1.6,2.3,2.5,4.5,2.5h7.2c.3,0,.6,0,.8,0,.6-.1,1.4-.3,2.5-.7,1.1-.3,2-.6,2.7-.6.3,0,.6,0,.8,0,.5,0,1,0,1.5.2,2.3.8,5.1,1.3,8.5,1.3,10.3,0,15.5-3.7,15.5-11.1v-10.7c0-3.6-1.2-6.3-3.7-8.2M433.8,674.1c0,3.8-1.7,5.7-5,5.7s-4.8,0-9.7,0c-4.9,0-9.4,0-13.3,0s-3.1-.2-5.1-.6v-7.3c.2-7.4,7.4-11.2,21.6-11.4,3.2,0,5.8.6,7.8,1.9,2.5,1.6,3.7,4,3.7,7.3v4.4h0ZM475.7,674.3c0,1.9-.4,3.3-1.2,4.2-.9,1-2.5,1.5-4.8,1.5s-3.8-.5-4.8-1.5c-.8-.8-1.2-2.2-1.2-4.2v-8.8c0-1.9.4-3.3,1.2-4.1.9-1,2.5-1.5,4.8-1.5s3.9.5,4.8,1.5c.8.8,1.2,2.2,1.2,4.1v8.8Z"/>
  <path class="st10" d="M536,647.9c.5-.4.8-.8.8-1.3v-5.5h-6.2c-.8,0-1.4.2-2,.8-.5.4-.8.8-.8,1.2v5.5h6.1c.8,0,1.5-.2,2.1-.6"/>
  <path class="st10" d="M523.4,647.9c.5-.4.8-.8.8-1.3v-5.5h-6.2c-.8,0-1.4.2-2,.8-.5.4-.8.8-.8,1.2v5.5h6.1c.8,0,1.5-.2,2.1-.6"/>
  <path class="st10" d="M655.9,691.9c-.5.4-.7.8-.7,1.2v5.5h6.1c.8,0,1.5-.2,2.1-.6.5-.4.8-.8.8-1.3v-5.5h-6.2c-.7,0-1.4.3-2,.8"/>
  <path class="st10" d="M643.3,691.9c-.5.4-.7.8-.7,1.2v5.5h6.1c.8,0,1.5-.2,2.1-.6.5-.4.8-.8.8-1.3v-5.5h-6.2c-.7,0-1.4.3-2,.8"/>
  <path class="st10" d="M655.6,658.1v16.9c0,3.2-1.7,4.8-5.1,4.8h-105.6c-3.2,0-4.8-1.3-5.1-4v-21.5c-1.6.8-3.5,1.3-5.8,1.3s-3.1-.2-5.5-.6c-2.3-.4-4-.6-5.1-.6-3.8,0-7,1.1-9.3,3.1-2.3,2-3.4,4.6-3.4,7.9v11c0,3.3,1.3,5.9,3.8,8,2.4,1.9,5.5,2.9,9.1,2.9s4.5-.6,6.5-1.8c1-.6,2-1.4,2.9-2.1.6.4,1.1.8,1.5,1.1,2.3,1.4,5.4,2.1,9.3,2.1h107.6c3.9,0,7.1-.7,9.4-2.2,2.9-1.8,4.3-4.5,4.3-8.2v-22.1c-1.4,0-2.9.3-4.6.7-3.3.8-4.8,2-4.8,3.6M530.3,675.8c0,1.4-.6,2.6-1.9,3.5-1.2.9-2.5,1.3-4,1.3-2.8,0-4.2-1.8-4.2-5.4v-9.1c0-1.9.4-3.2,1.3-4.2.9-1,2.4-1.5,4.5-1.5s2.9.2,4.2.5v14.8h0Z"/>
  <path class="st10" d="M678.4,647.7c.4,1.2,1.2,1.8,2.4,1.8h10.7c1.1,0,2-.6,2.4-1.8.2-.6.4-1.2.4-1.8h-4.1c-1.8,0-3.1-.4-4.1-1-1.2-.8-1.9-1.8-1.9-3.2v-.3c0-1.6,1-2.4,2.9-2.4s2.7.3,3.6.8c.9.6,1.3,1.2,1.3,2,.7-1,1-1.9,1-2.7s-.6-2-1.7-2.7c-1.1-.7-2.6-1.1-4.4-1.1s-4.4.5-5.7,1.4c-1.3,1-2,2.3-2,4.1,0,.2,0,.3,0,.4,0,1.3.6,2.5,1.9,3.6.4.4.8.6,1.3.9h-4.4c0,.6.1,1.2.3,1.8"/>
  <path class="st10" d="M700.5,654.2c-1.5.8-3.5,1.3-5.8,1.3s-3.1-.2-5.5-.6c-2.3-.4-4-.6-5.1-.6-3.8,0-7,1.1-9.3,3.1-2.3,2-3.4,4.6-3.4,7.9v11c0,3.3,1.2,5.9,3.8,8,2.4,1.9,5.5,2.9,9.1,2.9s4.4-.6,6.7-1.9v4.3c0,3.9-2.2,6.3-6.4,7.3-1.3.3-2.6.4-3.8.4-2.1,0-3.7-.2-5-.8,1.2,2,3.2,3.6,6.1,4.6,1.6.6,3.2.8,4.9.8s2.3-.1,3.5-.4c2.9-.6,5.3-1.8,7.2-3.6,2-1.9,3-4,3-6.5v-37.1h0ZM691,675.8c0,1.4-.6,2.6-1.9,3.5-1.2.9-2.5,1.3-4,1.3-2.8,0-4.2-1.8-4.2-5.4v-9.1c0-1.9.5-3.2,1.3-4.2.9-1,2.4-1.5,4.5-1.5s2.9.2,4.2.5v14.8h0Z"/>
  <path class="st10" d="M719.8,654.4c-1.7-.4-3.2-.6-4.6-.6v35.6c0,3.9-2.2,6.3-6.4,7.3-1.3.3-2.6.4-3.8.4-2.1,0-3.7-.2-5-.8,1.2,2,3.2,3.6,6.1,4.6,1.6.6,3.2.8,4.9.8s2.3-.1,3.5-.4c2.9-.6,5.3-1.8,7.2-3.6,2-1.9,3-4,3-6.5v-33.2c0-1.7-1.6-2.9-4.7-3.7"/>
  <path class="st10" d="M306.1,715.9c-.2,0-.9,0-2-.1l-1.3-.2-.4,1.3c-2.3,6.9-5.7,16.2-10.6,28.2-6.1-14.5-9.8-23.9-11-28.2l-.4-1.3h-1.3c-1,.2-2,.3-2.9.3s-2,0-3-.2l-2.8-.3,1.2,2.6c.5,1.1,2.7,5.8,8,18.7,4.1,9.8,6.7,16.4,7.7,19.5l.4,1.3,1.4-.3c.5,0,1-.1,1.7-.1s.8,0,1.7.1l1.3.2.4-1.3c.5-1.5,3.1-8,7.3-18.6,4.5-11.2,7.2-17.5,8.3-19.5l1.6-2.8-3.2.3c-1.1.1-1.8.2-2.1.2"/>
  <path class="st10" d="M321.8,734.9c0-6.8.1-12.6.4-17.4v-1.9c.1,0-1.8.2-1.8.2-.8.1-1.6.1-2.5.1s-1.9,0-2.7-.1l-1.9-.2v2c.4,4.3.6,9.1.6,14.4,0,10.6-.2,18.8-.4,23.7v1.9c-.1,0,1.8-.2,1.8-.2.9-.1,1.7-.1,2.5-.2h.2c.8,0,1.7,0,2.6.1l2,.2-.2-2c-.3-3.5-.4-10.6-.4-20.7"/>
  <path class="st10" d="M342.1,732.3c-2.9-1-4.9-2-6-3-1-.8-1.4-2-1.4-3.7s.4-2.7,1.4-3.5c1-.9,2.2-1.3,3.6-1.3s1.8.2,2.8.7c.9.5,1.8,1.5,2.7,3l.5.9,2.7-.4.3-1c.3-1.1.7-2.3,1.4-4l.4-1.1-.9-.7c-2.5-2-5.7-3.1-9.4-3.1s-7.3,1.2-9.6,3.5c-2.3,2.3-3.5,5.2-3.5,8.5s.6,4.9,2,7c1.3,2,4,3.8,8.1,5.2,4.4,1.6,5.6,2.8,6,3.3.7,1,1.1,2,1.1,3.3,0,2-.6,3.4-1.8,4.6-1.3,1.2-2.7,1.7-4.4,1.7s-2.8-.4-4.1-1.2c-1.3-.8-2.4-1.9-3.1-3.1l-.6-.9-2.9.5v1.2c-.3,1.3-.6,2.4-1,3.6l-.3,1,.8.7c1.6,1.5,3.2,2.6,4.9,3.1,1.6.5,3.3.8,5.1.8,4.4,0,8.1-1.4,10.9-4.3,2.8-2.9,4.2-6.1,4.2-9.8s-.8-5.2-2.3-7.1c-1.5-1.9-3.9-3.4-7.4-4.6"/>
  <path class="st10" d="M365,734.9c0-6.8.1-12.6.4-17.4v-1.9c.1,0-1.8.2-1.8.2-.8.1-1.6.1-2.5.1s-1.9,0-2.7-.1l-1.9-.2v2c.4,4.3.6,9.1.6,14.4,0,10.6-.2,18.8-.4,23.7v1.9c-.1,0,1.8-.2,1.8-.2.9-.1,1.7-.1,2.5-.2h.2c.8,0,1.7,0,2.6.1l2,.2-.2-2c-.3-3.5-.4-10.6-.4-20.7"/>
  <path class="st10" d="M378.5,736.8c0-5.2,1.2-9.1,3.8-11.9,2.4-2.8,5.6-4.1,9.7-4.1s7.3,1.3,9.6,4c2.4,2.7,3.6,6.6,3.6,11.4s-1.3,9-3.9,11.9c-2.6,2.9-5.7,4.3-9.7,4.3s-7.3-1.4-9.5-4.4c-2.4-3.1-3.5-6.8-3.5-11.1M407.9,720.9c-4.1-3.8-9.5-5.7-16-5.7s-12.3,2.2-16.3,6.5c-4,4.3-6,9.4-6,15.3s2.1,11.7,6.3,15.5c4.1,3.7,9.4,5.6,15.7,5.6s12.6-2.2,16.6-6.6c4-4.3,6-9.5,6-15.4s-2.1-11.3-6.3-15.1"/>
  <path class="st10" d="M454.2,715.6l-2,.3c-.9.1-1.4.1-1.6.1-.4,0-1,0-1.7-.1l-1.9-.3v1.9c.3,8.1.5,16.3.5,24.4-9.2-9.5-17.4-18.1-24.9-26.2l-.5-.5h-3.5v1.7c.4,4,.6,9.6.6,16.6s-.2,17-.4,22.1v2c-.1,0,1.9-.3,1.9-.3.7,0,1.2-.1,1.7-.1s.8,0,1.6.1l2,.3v-2c-.4-4.2-.5-12-.5-24.8,9,9,17.3,17.9,24.9,26.4l.5.5h3.5v-1.7c-.4-5.4-.5-11-.5-16.9,0-9.3.1-16.6.4-21.7v-2Z"/>
  <path class="st10" d="M482.6,736.8c0-5.2,1.2-9.1,3.8-11.9,2.4-2.8,5.6-4.1,9.7-4.1s7.3,1.3,9.6,4c2.4,2.7,3.6,6.6,3.6,11.4s-1.3,9-3.9,11.9c-2.6,2.9-5.7,4.3-9.7,4.3s-7.3-1.4-9.5-4.4c-2.4-3.1-3.5-6.8-3.5-11.1M511.9,720.9c-4.1-3.8-9.5-5.7-16-5.7s-12.3,2.2-16.3,6.5c-4,4.3-6,9.4-6,15.3s2.1,11.7,6.3,15.5c4.1,3.7,9.4,5.6,15.7,5.6s12.6-2.2,16.6-6.6c4-4.3,6-9.5,6-15.4s-2.1-11.3-6.3-15.1"/>
  <path class="st10" d="M545.9,715.3l-2.2.2c-3.2.3-6.6.4-10.1.4s-5.7-.1-10.4-.4h-1.9c0-.1.2,1.8.2,1.8.2,2.1.4,7.5.4,21.3s-.3,16-.4,17l-.3,2.1,2.1-.2c.9,0,1.7-.1,2.2-.2.2,0,.4,0,.5,0,.4,0,1.3,0,2.6.2l1.9.2-.2-1.9c-.3-3.2-.4-9.1-.4-17h3.6c2,0,4.9.1,8.9.4l2.1.2-.4-2.1c0-.4-.1-.9-.1-1.4s0-1.1.1-1.6l.4-2.2-2.2.3c-2.2.3-4.1.4-5.9.4h-6.6c0-4.5,0-7.9.1-10.6h1.2c3.3,0,7.4.1,12.6.4h2c0,.1-.4-1.9-.4-1.9,0-.5-.1-1.1-.1-1.6s0-1,.1-1.4l.5-2.1Z"/>
  <path class="st10" d="M585.1,754.5c0-.7,0-1.3.1-2l.3-2h-2c-4.8.4-8.6.6-11.6.6h-1.6c0-5.5.1-9.6.1-12.4h.6c3.3,0,7,.1,10.9.4l2,.2-.3-2c0-.5-.1-1-.1-1.5s0-1.1.1-1.6l.4-2.2-2.2.3c-2,.3-4.9.4-8.3.4h-3.1c0-4,0-7.9.1-10.8h3.1c3.6,0,6.9.1,9.7.4l2.1.2-.3-2.1c0-.5-.1-1-.1-1.6s0-1.1.1-1.5l.5-2.5-2.5.6c-.6.1-2.3.4-6.7.4-10.4,0-12-.3-12.2-.4l-2.7-.9.6,2.8c.3,1.3.4,4.6.4,9.8v6.6c0,12.6-.1,19.8-.4,22l-.3,2.1,2.1-.3c2-.3,5.2-.4,8.3-.5,9.1,0,10.6.3,10.8.4l2.8,1-.7-2.9c0-.4-.1-.7-.1-1.1"/>
  <path class="st10" d="M611.8,715.1c-7.6,0-13.5,2-17.5,6.1-4,4-6,9.3-6,15.7s2,11.6,5.8,15.4c3.9,3.8,9.6,5.8,17,5.8s9.8-.8,15-2.2l1.3-.4v-1.3c-.2-1.6-.3-3.6-.3-6.6s0-6.8.2-9.4v-1.9c0,0-1.8.2-1.8.2-1.3.1-2.1.2-2.3.2-.4,0-1.2,0-2.4-.2l-1.9-.2v1.9c.2,2.3.3,5.1.3,9.3s0,1.7-.1,3.7c-2,.8-4.3,1.2-7,1.2-5.2,0-8.9-1.4-11.2-4.3-2.4-3-3.7-6.9-3.7-11.5s1.4-8.9,4.1-11.6c2.7-2.8,6-4.2,10.1-4.2s8,1.6,11.6,4.8l.8.7,2.4-1,.2-.8c.3-1.2.7-2.4,1.3-3.7l.6-1.4-1.3-.7c-4.4-2.4-9.4-3.6-15.1-3.6"/>
  <path class="st10" d="M660.8,715.9c-.6,0-1.3,0-2.2-.2h-1.2c0-.1-.5,1-.5,1-1.8,4.3-4.7,9.7-8.6,16.2-3.2-5.4-6.1-10.9-8.7-16.3l-.5-1h-1.1c-2,.2-3,.2-3.3.2-.5,0-1.6,0-3.2-.2l-3.5-.3,2.1,2.8c.6.8,2,2.8,5.1,8,2.8,4.7,5.6,9.3,8.4,14.1v5.2c0,2.5-.2,6.3-.4,10v1.8c-.1,0,2.7-.2,2.7-.2.8,0,1.3,0,1.8,0,.7,0,1.6,0,2.6.2l1.8.2v-1.9c-.4-7.2-.5-12.3-.5-16.4,2-3.2,4.4-7.1,7-11.4,2.7-4.5,4.8-7.9,6-9.5l2.3-3-3.7.4c-.8,0-1.6.1-2.3.1"/>
  <path class="st10" d="M687.4,727c0,2.2-.7,3.8-2.3,5-1.6,1.3-4.1,1.9-7.4,1.9s-.7,0-1.1,0c0-5.8,0-9.6.1-12,1.2,0,2.1-.1,2.8-.1,3,0,5.1.5,6.3,1.4,1.1.8,1.6,2.1,1.6,3.8M681.7,715.8h-1.1c-1.8.1-3.7.2-5.5.2l-7.1.2.2,1.7c.3,3.3.5,8.9.4,15.6,0,9.6-.1,17.3-.4,22.2v1.9c-.1,0,1.8-.2,1.8-.2,1-.1,1.8-.2,2.6-.2s1.8,0,2.6.1l2.1.3-.3-2.1c-.3-1.9-.4-7-.4-15.7,1,0,2,.1,2.9.1,5.3,0,9.3-1.1,12.1-3.5,2.9-2.4,4.4-5.6,4.4-9.4s-1.1-6.2-3.2-8.2c-2.2-2.1-5.8-3.1-11-3.1"/>
  <path class="st10" d="M729.3,718.9c0-.6,0-1,.1-1.3l.5-2.1h-2.2c-6.3.4-10.5.5-13.4.5s-7.9-.1-15-.4h-2c0,0,.3,1.9.3,1.9.1.7.1,1.3.1,1.7s0,.9-.1,1.2l-.6,2.2,2.3-.2c3.6-.3,6.9-.4,10.1-.4.1,3.3.2,7.8.2,13.6,0,14.4-.3,18.7-.4,20l-.3,2,2-.2c.9-.1,1.8-.2,2.7-.2s1.7,0,2.5.2l1.9.2v-1.9c-.4-4.9-.5-14.2-.5-26.9s0-4.7,0-6.8c5.9,0,8.7.2,10,.4l2.3.3-.5-2.3c0-.4-.1-.9-.1-1.6"/>
</svg>